<svg xmlns="http://www.w3.org/2000/svg" viewBox="0 0 2598.4 686.92"><defs><style>.cls-1{font-size:296.09px;font-family:Futura-Bold, Futura;font-weight:700;}.cls-1,.cls-8{fill:#ed1c24;}.cls-2{letter-spacing:0.02em;}.cls-3{letter-spacing:0.01em;}.cls-4{font-size:230px;}.cls-4,.cls-7{fill:#212121;}.cls-5{letter-spacing:-0.05em;}.cls-6{letter-spacing:-0.06em;}.cls-9{fill:#091540;}.cls-10{fill:#abd2fa;}.cls-11{fill:#1b2cc1;}.cls-12{fill:#7692ff;}.cls-13{fill:#3d518c;}</style></defs><title>LogoType</title><g id="Layer_3" data-name="Layer 3"><text class="cls-1" transform="translate(765.95 280.69)">ideaHa<tspan class="cls-2" x="1151.17" y="0">c</tspan><tspan class="cls-3" x="1303.65" y="0">k</tspan><tspan x="1514.46" y="0">s_</tspan><tspan class="cls-4"><tspan x="0" y="276">YEAR2</tspan><tspan class="cls-5" x="801.31" y="276">0</tspan><tspan class="cls-6" x="945.98" y="276">1</tspan><tspan x="1088.81" y="276">8</tspan></tspan></text><polygon class="cls-7" points="625.82 75.24 611.67 61.1 414.23 258.55 233.83 78.14 219.69 92.29 400.09 272.69 74.82 597.96 88.96 612.1 404.23 296.83 404.23 594.38 424.23 594.38 424.23 296.83 602.09 474.69 616.23 460.55 428.37 272.69 625.82 75.24"/><circle class="cls-8" cx="414.23" cy="272.69" r="95.87"/><circle class="cls-9" cx="618.75" cy="68.17" r="68.17"/><circle class="cls-10" cx="75.8" cy="611.12" r="75.8"/><circle class="cls-11" cx="618.75" cy="477.2" r="37.21"/><circle class="cls-12" cx="243.45" cy="101.91" r="37.21"/><circle class="cls-13" cx="414.23" cy="594.38" r="55.24"/></g></svg>